<svg width="262" height="260" viewBox="0 0 262 260" fill="none" xmlns="http://www.w3.org/2000/svg">
<path d="M10.1089 156.648C8.34887 156.648 6.83687 156.296 5.57287 155.592C4.32487 154.872 3.36487 153.864 2.69287 152.568C2.02087 151.256 1.68487 149.712 1.68487 147.936C1.68487 146.16 2.02087 144.624 2.69287 143.328C3.36487 142.032 4.32487 141.032 5.57287 140.328C6.83687 139.608 8.34887 139.248 10.1089 139.248C11.2929 139.248 12.3569 139.416 13.3009 139.752C14.2609 140.088 15.0849 140.584 15.7729 141.24L14.7649 143.688C14.0129 143.08 13.2849 142.648 12.5809 142.392C11.8929 142.12 11.1009 141.984 10.2049 141.984C8.49287 141.984 7.18087 142.504 6.26887 143.544C5.37287 144.568 4.92487 146.032 4.92487 147.936C4.92487 149.84 5.37287 151.312 6.26887 152.352C7.18087 153.392 8.49287 153.912 10.2049 153.912C11.1009 153.912 11.8929 153.784 12.5809 153.528C13.2849 153.256 14.0129 152.808 14.7649 152.184L15.7729 154.632C15.0849 155.272 14.2609 155.768 13.3009 156.12C12.3569 156.472 11.2929 156.648 10.1089 156.648ZM23.0548 156.648C21.8068 156.648 20.7268 156.392 19.8148 155.88C18.9028 155.368 18.1908 154.64 17.6788 153.696C17.1828 152.752 16.9348 151.632 16.9348 150.336C16.9348 149.04 17.1828 147.928 17.6788 147C18.1908 146.056 18.9028 145.328 19.8148 144.816C20.7268 144.304 21.8068 144.048 23.0548 144.048C24.3028 144.048 25.3828 144.304 26.2948 144.816C27.2228 145.328 27.9348 146.056 28.4308 147C28.9428 147.928 29.1988 149.04 29.1988 150.336C29.1988 151.632 28.9428 152.752 28.4308 153.696C27.9348 154.64 27.2228 155.368 26.2948 155.88C25.3828 156.392 24.3028 156.648 23.0548 156.648ZM23.0548 154.344C23.9988 154.344 24.7508 154.016 25.3108 153.36C25.8708 152.688 26.1508 151.68 26.1508 150.336C26.1508 148.992 25.8708 147.992 25.3108 147.336C24.7508 146.68 23.9988 146.352 23.0548 146.352C22.1108 146.352 21.3588 146.68 20.7988 147.336C20.2388 147.992 19.9588 148.992 19.9588 150.336C19.9588 151.68 20.2388 152.688 20.7988 153.36C21.3588 154.016 22.1108 154.344 23.0548 154.344ZM31.7859 156.408V147.312C31.7859 146.816 31.7699 146.312 31.7379 145.8C31.7059 145.288 31.6579 144.784 31.5939 144.288H34.4979L34.7379 146.688H34.4499C34.8339 145.84 35.4019 145.192 36.1539 144.744C36.9059 144.28 37.7779 144.048 38.7699 144.048C40.1939 144.048 41.2659 144.448 41.9859 145.248C42.7059 146.048 43.0659 147.296 43.0659 148.992V156.408H40.0659V149.136C40.0659 148.16 39.8739 147.464 39.4899 147.048C39.1219 146.616 38.5619 146.4 37.8099 146.4C36.8819 146.4 36.1459 146.688 35.6019 147.264C35.0579 147.84 34.7859 148.608 34.7859 149.568V156.408H31.7859ZM50.5669 156.648C49.5269 156.648 48.5669 156.528 47.6869 156.288C46.8229 156.032 46.0949 155.68 45.5029 155.232L46.3429 153.216C46.9509 153.632 47.6229 153.952 48.3589 154.176C49.0949 154.4 49.8389 154.512 50.5909 154.512C51.3909 154.512 51.9829 154.376 52.3669 154.104C52.7669 153.832 52.9669 153.464 52.9669 153C52.9669 152.632 52.8389 152.344 52.5829 152.136C52.3429 151.912 51.9509 151.744 51.4069 151.632L49.0069 151.176C47.9829 150.952 47.1989 150.568 46.6549 150.024C46.1269 149.48 45.8629 148.768 45.8629 147.888C45.8629 147.136 46.0629 146.472 46.4629 145.896C46.8789 145.32 47.4629 144.872 48.2149 144.552C48.9829 144.216 49.8789 144.048 50.9029 144.048C51.7989 144.048 52.6389 144.168 53.4229 144.408C54.2229 144.648 54.8949 145.008 55.4389 145.488L54.5749 147.432C54.0789 147.032 53.5109 146.72 52.8709 146.496C52.2309 146.272 51.6069 146.16 50.9989 146.16C50.1669 146.16 49.5589 146.312 49.1749 146.616C48.7909 146.904 48.5989 147.28 48.5989 147.744C48.5989 148.096 48.7109 148.392 48.9349 148.632C49.1749 148.856 49.5429 149.024 50.0389 149.136L52.4389 149.592C53.5109 149.8 54.3189 150.168 54.8629 150.696C55.4229 151.208 55.7029 151.912 55.7029 152.808C55.7029 153.608 55.4869 154.296 55.0549 154.872C54.6229 155.448 54.0229 155.888 53.2549 156.192C52.4869 156.496 51.5909 156.648 50.5669 156.648ZM62.6383 156.648C61.1503 156.648 60.0383 156.24 59.3023 155.424C58.5663 154.608 58.1983 153.36 58.1983 151.68V144.288H61.1983V151.656C61.1983 152.552 61.3823 153.216 61.7503 153.648C62.1183 154.064 62.6783 154.272 63.4303 154.272C64.2783 154.272 64.9663 153.984 65.4943 153.408C66.0383 152.832 66.3103 152.072 66.3103 151.128V144.288H69.3103V156.408H66.3823V153.936H66.7183C66.3663 154.8 65.8303 155.472 65.1103 155.952C64.4063 156.416 63.5823 156.648 62.6383 156.648ZM72.5672 156.408V138.744H75.5672V156.408H72.5672ZM84.009 156.648C82.569 156.648 81.481 156.272 80.745 155.52C80.009 154.768 79.641 153.64 79.641 152.136V146.544H77.313V144.288H79.641V141.192L82.641 140.424V144.288H85.881V146.544H82.641V151.944C82.641 152.776 82.801 153.36 83.121 153.696C83.441 154.032 83.881 154.2 84.441 154.2C84.745 154.2 85.001 154.176 85.209 154.128C85.433 154.08 85.649 154.016 85.857 153.936V156.312C85.585 156.424 85.281 156.504 84.945 156.552C84.625 156.616 84.313 156.648 84.009 156.648ZM92.5987 156.648C91.5427 156.648 90.6147 156.4 89.8147 155.904C89.0147 155.392 88.3907 154.664 87.9427 153.72C87.4947 152.776 87.2707 151.648 87.2707 150.336C87.2707 149.024 87.4947 147.904 87.9427 146.976C88.3907 146.032 89.0147 145.312 89.8147 144.816C90.6147 144.304 91.5427 144.048 92.5987 144.048C93.6227 144.048 94.5187 144.304 95.2867 144.816C96.0707 145.312 96.5907 145.984 96.8467 146.832H96.5827L96.8467 144.288H99.7267C99.6787 144.784 99.6307 145.288 99.5827 145.8C99.5507 146.312 99.5347 146.816 99.5347 147.312V156.408H96.5587L96.5347 153.912H96.8227C96.5667 154.744 96.0467 155.408 95.2627 155.904C94.4787 156.4 93.5907 156.648 92.5987 156.648ZM93.4387 154.344C94.3827 154.344 95.1427 154.016 95.7187 153.36C96.2947 152.688 96.5827 151.68 96.5827 150.336C96.5827 148.992 96.2947 147.992 95.7187 147.336C95.1427 146.68 94.3827 146.352 93.4387 146.352C92.4947 146.352 91.7347 146.68 91.1587 147.336C90.5827 147.992 90.2947 148.992 90.2947 150.336C90.2947 151.68 90.5747 152.688 91.1347 153.36C91.7107 154.016 92.4787 154.344 93.4387 154.344ZM107.986 156.648C106.546 156.648 105.458 156.272 104.722 155.52C103.986 154.768 103.618 153.64 103.618 152.136V146.544H101.29V144.288H103.618V141.192L106.618 140.424V144.288H109.858V146.544H106.618V151.944C106.618 152.776 106.778 153.36 107.098 153.696C107.418 154.032 107.858 154.2 108.418 154.2C108.722 154.2 108.978 154.176 109.186 154.128C109.41 154.08 109.626 154.016 109.834 153.936V156.312C109.562 156.424 109.258 156.504 108.922 156.552C108.602 156.616 108.29 156.648 107.986 156.648ZM111.895 156.408V144.288H114.895V156.408H111.895ZM111.727 142.008V139.08H115.063V142.008H111.727ZM123.625 156.648C122.377 156.648 121.297 156.392 120.385 155.88C119.473 155.368 118.761 154.64 118.249 153.696C117.753 152.752 117.505 151.632 117.505 150.336C117.505 149.04 117.753 147.928 118.249 147C118.761 146.056 119.473 145.328 120.385 144.816C121.297 144.304 122.377 144.048 123.625 144.048C124.873 144.048 125.953 144.304 126.865 144.816C127.793 145.328 128.505 146.056 129.001 147C129.513 147.928 129.769 149.04 129.769 150.336C129.769 151.632 129.513 152.752 129.001 153.696C128.505 154.64 127.793 155.368 126.865 155.88C125.953 156.392 124.873 156.648 123.625 156.648ZM123.625 154.344C124.569 154.344 125.321 154.016 125.881 153.36C126.441 152.688 126.721 151.68 126.721 150.336C126.721 148.992 126.441 147.992 125.881 147.336C125.321 146.68 124.569 146.352 123.625 146.352C122.681 146.352 121.929 146.68 121.369 147.336C120.809 147.992 120.529 148.992 120.529 150.336C120.529 151.68 120.809 152.688 121.369 153.36C121.929 154.016 122.681 154.344 123.625 154.344ZM132.356 156.408V147.312C132.356 146.816 132.34 146.312 132.308 145.8C132.276 145.288 132.228 144.784 132.164 144.288H135.068L135.308 146.688H135.02C135.404 145.84 135.972 145.192 136.724 144.744C137.476 144.28 138.348 144.048 139.34 144.048C140.764 144.048 141.836 144.448 142.556 145.248C143.276 146.048 143.636 147.296 143.636 148.992V156.408H140.636V149.136C140.636 148.16 140.444 147.464 140.06 147.048C139.692 146.616 139.132 146.4 138.38 146.4C137.452 146.4 136.716 146.688 136.172 147.264C135.628 147.84 135.356 148.608 135.356 149.568V156.408H132.356Z" fill="black"/>
<g clip-path="url(#clip0_33_15)">
<path d="M64.9697 0H2.32971C1.04143 0 0 1.02822 0 2.30017V92.7074C0 93.9794 1.04143 95.0076 2.32971 95.0076H64.9697C66.258 95.0076 67.2994 93.9794 67.2994 92.7074V2.30017C67.2917 1.02822 66.2502 0 64.9697 0Z" fill="url(#paint0_linear_33_15)"/>
<path d="M60.858 4.09766H6.43371C5.184 4.09766 4.16571 5.10303 4.16571 6.34451V81.0923C4.16571 82.3338 5.184 83.3316 6.43371 83.3316H60.858C62.1154 83.3316 63.126 82.3262 63.126 81.0923V6.34451C63.126 5.10303 62.1154 4.09766 60.858 4.09766Z" fill="white"/>
<path d="M44.7737 39.636H22.5257C21.5074 39.636 20.682 38.8211 20.682 37.8157V15.8422C20.682 14.8369 21.5074 14.0219 22.5257 14.0219H44.7737C45.792 14.0219 46.6174 14.8369 46.6174 15.8422V37.8081C46.6174 38.8135 45.792 39.636 44.7737 39.636Z" fill="url(#paint1_linear_33_15)"/>
<path d="M33.6497 92.5475C35.5413 92.5475 37.0748 91.0335 37.0748 89.1658C37.0748 87.2981 35.5413 85.7841 33.6497 85.7841C31.758 85.7841 30.2245 87.2981 30.2245 89.1658C30.2245 91.0335 31.758 92.5475 33.6497 92.5475Z" fill="white"/>
<path d="M53.0357 51.015H14.256C13.2763 51.015 12.474 50.2229 12.474 49.2556C12.474 48.2883 13.2763 47.4962 14.256 47.4962H53.028C54.0077 47.4962 54.81 48.2883 54.81 49.2556C54.81 50.2229 54.0154 51.015 53.0357 51.015Z" fill="url(#paint2_linear_33_15)"/>
<path opacity="0.6" d="M46.4708 60.764H13.608C12.9831 60.764 12.4817 60.2613 12.4817 59.652V59.5302C12.4817 58.9132 12.9909 58.4182 13.608 58.4182H46.4708C47.0957 58.4182 47.5971 58.9208 47.5971 59.5302V59.652C47.6048 60.2613 47.0957 60.764 46.4708 60.764Z" fill="url(#paint3_linear_33_15)"/>
<path opacity="0.3" d="M40.2146 66.9562H13.5C12.9369 66.9562 12.474 66.4992 12.474 65.9432V65.6081C12.474 65.0521 12.9369 64.5951 13.5 64.5951H40.2068C40.77 64.5951 41.2328 65.0521 41.2328 65.6081V65.9432C41.2328 66.4992 40.77 66.9562 40.2146 66.9562Z" fill="url(#paint4_linear_33_15)"/>
<path opacity="0.6" d="M43.578 72.6914H13.5617C12.9677 72.6914 12.4817 72.2116 12.4817 71.6251V71.4119C12.4817 70.8254 12.9677 70.3456 13.5617 70.3456H43.578C44.172 70.3456 44.658 70.8254 44.658 71.4119V71.6251C44.658 72.204 44.172 72.6914 43.578 72.6914Z" fill="url(#paint5_linear_33_15)"/>
<path d="M33.7166 26.1208C35.9441 26.1208 37.7498 24.3141 37.7498 22.0854C37.7498 19.8566 35.9441 18.05 33.7166 18.05C31.489 18.05 29.6833 19.8566 29.6833 22.0854C29.6833 24.3141 31.4805 26.1208 33.7166 26.1208ZM33.7166 28.1385C31.0249 28.1385 25.65 29.4892 25.65 32.1739V33.1869C25.65 33.7441 26.1056 34.2 26.6625 34.2H40.7875C41.3444 34.2 41.8 33.7441 41.8 33.1869V32.1739C41.7831 29.4977 36.4082 28.1385 33.7166 28.1385Z" fill="white"/>
</g>
<path d="M2.488 196V184.72H9.336V185.568H3.48V189.872H9V190.72H3.48V196H2.488ZM11.0776 196V189.856C11.0776 189.547 11.067 189.237 11.0456 188.928C11.035 188.608 11.0083 188.293 10.9656 187.984H11.9256L12.0536 189.824L11.8616 189.84C11.9683 189.392 12.1603 189.024 12.4376 188.736C12.715 188.437 13.035 188.213 13.3976 188.064C13.7603 187.915 14.1336 187.84 14.5176 187.84C14.6563 187.84 14.7843 187.851 14.9016 187.872C15.0296 187.883 15.147 187.904 15.2536 187.936L15.2216 188.816C15.0936 188.773 14.9656 188.747 14.8376 188.736C14.7096 188.725 14.571 188.72 14.4216 188.72C13.9416 188.72 13.5203 188.837 13.1576 189.072C12.8056 189.307 12.5336 189.605 12.3416 189.968C12.1496 190.331 12.0536 190.699 12.0536 191.072V196H11.0776ZM20.018 196.128C18.802 196.128 17.8367 195.765 17.122 195.04C16.418 194.315 16.066 193.307 16.066 192.016C16.066 191.163 16.2207 190.427 16.53 189.808C16.85 189.189 17.2927 188.709 17.858 188.368C18.4233 188.016 19.0793 187.84 19.826 187.84C20.5407 187.84 21.1433 187.995 21.634 188.304C22.1247 188.603 22.5033 189.035 22.77 189.6C23.0367 190.155 23.17 190.816 23.17 191.584V192.032H16.77V191.328H22.562L22.29 191.536C22.29 190.629 22.082 189.92 21.666 189.408C21.25 188.885 20.6313 188.624 19.81 188.624C18.9353 188.624 18.2527 188.928 17.762 189.536C17.2713 190.133 17.026 190.928 17.026 191.92V192.032C17.026 193.099 17.2873 193.909 17.81 194.464C18.3433 195.019 19.0847 195.296 20.034 195.296C20.5247 195.296 20.9833 195.221 21.41 195.072C21.8367 194.923 22.2473 194.667 22.642 194.304L23.042 195.024C22.7007 195.376 22.258 195.648 21.714 195.84C21.17 196.032 20.6047 196.128 20.018 196.128ZM28.7055 196.128C27.4895 196.128 26.5242 195.765 25.8095 195.04C25.1055 194.315 24.7535 193.307 24.7535 192.016C24.7535 191.163 24.9082 190.427 25.2175 189.808C25.5375 189.189 25.9802 188.709 26.5455 188.368C27.1108 188.016 27.7668 187.84 28.5135 187.84C29.2282 187.84 29.8308 187.995 30.3215 188.304C30.8122 188.603 31.1908 189.035 31.4575 189.6C31.7242 190.155 31.8575 190.816 31.8575 191.584V192.032H25.4575V191.328H31.2495L30.9775 191.536C30.9775 190.629 30.7695 189.92 30.3535 189.408C29.9375 188.885 29.3188 188.624 28.4975 188.624C27.6228 188.624 26.9402 188.928 26.4495 189.536C25.9588 190.133 25.7135 190.928 25.7135 191.92V192.032C25.7135 193.099 25.9748 193.909 26.4975 194.464C27.0308 195.019 27.7722 195.296 28.7215 195.296C29.2122 195.296 29.6708 195.221 30.0975 195.072C30.5242 194.923 30.9348 194.667 31.3295 194.304L31.7295 195.024C31.3882 195.376 30.9455 195.648 30.4015 195.84C29.8575 196.032 29.2922 196.128 28.7055 196.128ZM41.2631 196.128C40.5058 196.128 39.8445 195.963 39.2791 195.632C38.7138 195.291 38.2765 194.805 37.9671 194.176C37.6685 193.547 37.5191 192.8 37.5191 191.936C37.5191 191.072 37.6738 190.336 37.9831 189.728C38.2925 189.109 38.7245 188.64 39.2791 188.32C39.8445 188 40.5058 187.84 41.2631 187.84C41.7751 187.84 42.2658 187.936 42.7351 188.128C43.2151 188.32 43.6098 188.587 43.9191 188.928L43.5191 189.648C43.1885 189.317 42.8311 189.077 42.4471 188.928C42.0631 188.768 41.6791 188.688 41.2951 188.688C40.4205 188.688 39.7378 188.965 39.2471 189.52C38.7565 190.075 38.5111 190.885 38.5111 191.952C38.5111 193.019 38.7565 193.845 39.2471 194.432C39.7378 195.008 40.4205 195.296 41.2951 195.296C41.6578 195.296 42.0311 195.221 42.4151 195.072C42.8098 194.923 43.1778 194.677 43.5191 194.336L43.9191 195.056C43.5991 195.397 43.1938 195.664 42.7031 195.856C42.2231 196.037 41.7431 196.128 41.2631 196.128ZM48.9023 196.128C48.1449 196.128 47.4889 195.963 46.9343 195.632C46.3903 195.301 45.9689 194.827 45.6703 194.208C45.3716 193.589 45.2223 192.848 45.2223 191.984C45.2223 191.131 45.3716 190.395 45.6703 189.776C45.9689 189.157 46.3903 188.683 46.9343 188.352C47.4889 188.011 48.1449 187.84 48.9023 187.84C49.6489 187.84 50.2943 188.011 50.8383 188.352C51.3929 188.683 51.8196 189.157 52.1183 189.776C52.4276 190.395 52.5823 191.131 52.5823 191.984C52.5823 192.848 52.4276 193.589 52.1183 194.208C51.8196 194.827 51.3929 195.301 50.8383 195.632C50.2943 195.963 49.6489 196.128 48.9023 196.128ZM48.9023 195.296C49.7129 195.296 50.3636 195.013 50.8543 194.448C51.3449 193.883 51.5903 193.061 51.5903 191.984C51.5903 190.907 51.3449 190.085 50.8543 189.52C50.3636 188.955 49.7129 188.672 48.9023 188.672C48.0809 188.672 47.4249 188.955 46.9343 189.52C46.4543 190.085 46.2143 190.907 46.2143 191.984C46.2143 193.061 46.4543 193.883 46.9343 194.448C47.4249 195.013 48.0809 195.296 48.9023 195.296ZM54.7186 196V189.776C54.7186 189.488 54.708 189.195 54.6866 188.896C54.6653 188.597 54.6333 188.293 54.5906 187.984H55.5506L55.6946 189.824H55.5026C55.7373 189.184 56.116 188.693 56.6386 188.352C57.1613 188.011 57.7693 187.84 58.4626 187.84C59.412 187.84 60.1266 188.091 60.6066 188.592C61.0973 189.093 61.3426 189.877 61.3426 190.944V196H60.3666V191.024C60.3666 190.203 60.2013 189.611 59.8706 189.248C59.54 188.875 59.028 188.688 58.3346 188.688C57.524 188.688 56.8786 188.933 56.3986 189.424C55.9293 189.915 55.6946 190.576 55.6946 191.408V196H54.7186ZM66.5606 196.128C65.942 196.128 65.3606 196.037 64.8166 195.856C64.2833 195.675 63.8406 195.424 63.4886 195.104L63.8726 194.384C64.2673 194.704 64.694 194.944 65.1526 195.104C65.6113 195.253 66.0913 195.328 66.5926 195.328C67.2753 195.328 67.7926 195.2 68.1446 194.944C68.4966 194.688 68.6726 194.341 68.6726 193.904C68.6726 193.563 68.5606 193.285 68.3366 193.072C68.1126 192.859 67.7393 192.699 67.2166 192.592L65.7766 192.288C65.094 192.128 64.582 191.872 64.2406 191.52C63.91 191.168 63.7446 190.725 63.7446 190.192C63.7446 189.733 63.862 189.328 64.0966 188.976C64.342 188.624 64.6886 188.347 65.1366 188.144C65.5846 187.941 66.1126 187.84 66.7206 187.84C67.2966 187.84 67.8246 187.936 68.3046 188.128C68.7953 188.309 69.1953 188.571 69.5046 188.912L69.0886 189.616C68.7686 189.296 68.406 189.056 68.0006 188.896C67.606 188.736 67.1846 188.656 66.7366 188.656C66.0753 188.656 65.574 188.795 65.2326 189.072C64.8913 189.339 64.7206 189.696 64.7206 190.144C64.7206 190.485 64.8273 190.768 65.0406 190.992C65.254 191.205 65.59 191.365 66.0486 191.472L67.4886 191.792C68.214 191.952 68.7526 192.197 69.1046 192.528C69.4566 192.859 69.6326 193.296 69.6326 193.84C69.6326 194.309 69.5046 194.72 69.2486 195.072C68.9926 195.413 68.6353 195.675 68.1766 195.856C67.718 196.037 67.1793 196.128 66.5606 196.128ZM74.6909 196.128C73.7522 196.128 73.0375 195.877 72.5469 195.376C72.0669 194.864 71.8269 194.08 71.8269 193.024V187.984H72.8029V192.96C72.8029 193.771 72.9682 194.363 73.2989 194.736C73.6295 195.109 74.1362 195.296 74.8189 195.296C75.5762 195.296 76.1842 195.051 76.6429 194.56C77.1122 194.059 77.3469 193.397 77.3469 192.576V187.984H78.3229V196H77.3629V194.112H77.5709C77.3469 194.763 76.9789 195.264 76.4669 195.616C75.9655 195.957 75.3735 196.128 74.6909 196.128ZM80.9843 196V184.224H81.9603V196H80.9843ZM87.2169 196.128C86.5022 196.128 85.9529 195.915 85.5689 195.488C85.1955 195.061 85.0089 194.405 85.0089 193.52V188.768H83.4089V187.984H85.0089V185.744L85.9849 185.424V187.984H88.3529V188.768H85.9849V193.376C85.9849 194.048 86.0915 194.533 86.3049 194.832C86.5182 195.131 86.8595 195.28 87.3289 195.28C87.5422 195.28 87.7289 195.259 87.8889 195.216C88.0595 195.173 88.2035 195.125 88.3209 195.072V195.936C88.1929 195.989 88.0275 196.032 87.8249 196.064C87.6222 196.107 87.4195 196.128 87.2169 196.128ZM93.0555 196.128C92.3302 196.128 91.7008 195.963 91.1675 195.632C90.6342 195.301 90.2235 194.827 89.9355 194.208C89.6475 193.589 89.5035 192.848 89.5035 191.984C89.5035 191.12 89.6475 190.384 89.9355 189.776C90.2342 189.157 90.6502 188.683 91.1835 188.352C91.7168 188.011 92.3408 187.84 93.0555 187.84C93.7915 187.84 94.4262 188.032 94.9595 188.416C95.5035 188.8 95.8608 189.323 96.0315 189.984H95.8395L95.9995 187.984H96.9435C96.9115 188.293 96.8795 188.597 96.8475 188.896C96.8262 189.195 96.8155 189.488 96.8155 189.776V196H95.8395V194H96.0155C95.8448 194.661 95.4875 195.184 94.9435 195.568C94.4102 195.941 93.7808 196.128 93.0555 196.128ZM93.1835 195.296C94.0048 195.296 94.6555 195.013 95.1355 194.448C95.6155 193.883 95.8555 193.061 95.8555 191.984C95.8555 190.907 95.6155 190.085 95.1355 189.52C94.6555 188.955 94.0048 188.672 93.1835 188.672C92.3622 188.672 91.7062 188.955 91.2155 189.52C90.7355 190.085 90.4955 190.907 90.4955 191.984C90.4955 193.061 90.7355 193.883 91.2155 194.448C91.7062 195.013 92.3622 195.296 93.1835 195.296ZM102.061 196.128C101.346 196.128 100.797 195.915 100.413 195.488C100.039 195.061 99.8526 194.405 99.8526 193.52V188.768H98.2526V187.984H99.8526V185.744L100.829 185.424V187.984H103.197V188.768H100.829V193.376C100.829 194.048 100.935 194.533 101.149 194.832C101.362 195.131 101.703 195.28 102.173 195.28C102.386 195.28 102.573 195.259 102.733 195.216C102.903 195.173 103.047 195.125 103.165 195.072V195.936C103.037 195.989 102.871 196.032 102.669 196.064C102.466 196.107 102.263 196.128 102.061 196.128ZM104.859 196V187.984H105.835V196H104.859ZM104.699 186.016V184.8H106.011V186.016H104.699ZM111.668 196.128C110.911 196.128 110.255 195.963 109.7 195.632C109.156 195.301 108.735 194.827 108.436 194.208C108.137 193.589 107.988 192.848 107.988 191.984C107.988 191.131 108.137 190.395 108.436 189.776C108.735 189.157 109.156 188.683 109.7 188.352C110.255 188.011 110.911 187.84 111.668 187.84C112.415 187.84 113.06 188.011 113.604 188.352C114.159 188.683 114.585 189.157 114.884 189.776C115.193 190.395 115.348 191.131 115.348 191.984C115.348 192.848 115.193 193.589 114.884 194.208C114.585 194.827 114.159 195.301 113.604 195.632C113.06 195.963 112.415 196.128 111.668 196.128ZM111.668 195.296C112.479 195.296 113.129 195.013 113.62 194.448C114.111 193.883 114.356 193.061 114.356 191.984C114.356 190.907 114.111 190.085 113.62 189.52C113.129 188.955 112.479 188.672 111.668 188.672C110.847 188.672 110.191 188.955 109.7 189.52C109.22 190.085 108.98 190.907 108.98 191.984C108.98 193.061 109.22 193.883 109.7 194.448C110.191 195.013 110.847 195.296 111.668 195.296ZM117.484 196V189.776C117.484 189.488 117.474 189.195 117.452 188.896C117.431 188.597 117.399 188.293 117.356 187.984H118.316L118.46 189.824H118.268C118.503 189.184 118.882 188.693 119.404 188.352C119.927 188.011 120.535 187.84 121.228 187.84C122.178 187.84 122.892 188.091 123.372 188.592C123.863 189.093 124.108 189.877 124.108 190.944V196H123.132V191.024C123.132 190.203 122.967 189.611 122.636 189.248C122.306 188.875 121.794 188.688 121.1 188.688C120.29 188.688 119.644 188.933 119.164 189.424C118.695 189.915 118.46 190.576 118.46 191.408V196H117.484ZM132.94 196L130.044 187.984H131.1L133.676 195.424H133.244L135.916 187.984H136.908L139.532 195.424H139.116L141.724 187.984H142.732L139.82 196H138.812L136.124 188.464H136.684L133.964 196H132.94ZM144.625 196V187.984H145.601V196H144.625ZM144.465 186.016V184.8H145.777V186.016H144.465ZM150.858 196.128C150.143 196.128 149.594 195.915 149.21 195.488C148.836 195.061 148.65 194.405 148.65 193.52V188.768H147.05V187.984H148.65V185.744L149.626 185.424V187.984H151.994V188.768H149.626V193.376C149.626 194.048 149.732 194.533 149.946 194.832C150.159 195.131 150.5 195.28 150.97 195.28C151.183 195.28 151.37 195.259 151.53 195.216C151.7 195.173 151.844 195.125 151.962 195.072V195.936C151.834 195.989 151.668 196.032 151.466 196.064C151.263 196.107 151.06 196.128 150.858 196.128ZM153.656 196V184.224H154.632V189.84H154.44C154.664 189.189 155.043 188.693 155.576 188.352C156.109 188.011 156.728 187.84 157.432 187.84C158.403 187.84 159.117 188.096 159.576 188.608C160.045 189.12 160.28 189.888 160.28 190.912V196H159.304V190.992C159.304 190.181 159.144 189.595 158.824 189.232C158.504 188.869 157.992 188.688 157.288 188.688C156.488 188.688 155.843 188.933 155.352 189.424C154.872 189.915 154.632 190.565 154.632 191.376V196H153.656ZM170.152 196.128C169.395 196.128 168.739 195.963 168.184 195.632C167.64 195.301 167.219 194.827 166.92 194.208C166.622 193.589 166.472 192.848 166.472 191.984C166.472 191.131 166.622 190.395 166.92 189.776C167.219 189.157 167.64 188.683 168.184 188.352C168.739 188.011 169.395 187.84 170.152 187.84C170.899 187.84 171.544 188.011 172.088 188.352C172.643 188.683 173.07 189.157 173.368 189.776C173.678 190.395 173.832 191.131 173.832 191.984C173.832 192.848 173.678 193.589 173.368 194.208C173.07 194.827 172.643 195.301 172.088 195.632C171.544 195.963 170.899 196.128 170.152 196.128ZM170.152 195.296C170.963 195.296 171.614 195.013 172.104 194.448C172.595 193.883 172.84 193.061 172.84 191.984C172.84 190.907 172.595 190.085 172.104 189.52C171.614 188.955 170.963 188.672 170.152 188.672C169.331 188.672 168.675 188.955 168.184 189.52C167.704 190.085 167.464 190.907 167.464 191.984C167.464 193.061 167.704 193.883 168.184 194.448C168.675 195.013 169.331 195.296 170.152 195.296ZM178.785 196.128C177.846 196.128 177.131 195.877 176.641 195.376C176.161 194.864 175.921 194.08 175.921 193.024V187.984H176.897V192.96C176.897 193.771 177.062 194.363 177.393 194.736C177.723 195.109 178.23 195.296 178.913 195.296C179.67 195.296 180.278 195.051 180.737 194.56C181.206 194.059 181.441 193.397 181.441 192.576V187.984H182.417V196H181.457V194.112H181.665C181.441 194.763 181.073 195.264 180.561 195.616C180.059 195.957 179.467 196.128 178.785 196.128ZM185.062 196V189.856C185.062 189.547 185.051 189.237 185.03 188.928C185.019 188.608 184.993 188.293 184.95 187.984H185.91L186.038 189.824L185.846 189.84C185.953 189.392 186.145 189.024 186.422 188.736C186.699 188.437 187.019 188.213 187.382 188.064C187.745 187.915 188.118 187.84 188.502 187.84C188.641 187.84 188.769 187.851 188.886 187.872C189.014 187.883 189.131 187.904 189.238 187.936L189.206 188.816C189.078 188.773 188.95 188.747 188.822 188.736C188.694 188.725 188.555 188.72 188.406 188.72C187.926 188.72 187.505 188.837 187.142 189.072C186.79 189.307 186.518 189.605 186.326 189.968C186.134 190.331 186.038 190.699 186.038 191.072V196H185.062ZM197.326 196.128C196.612 196.128 196.062 195.915 195.678 195.488C195.305 195.061 195.118 194.405 195.118 193.52V188.768H193.518V187.984H195.118V185.744L196.094 185.424V187.984H198.462V188.768H196.094V193.376C196.094 194.048 196.201 194.533 196.414 194.832C196.628 195.131 196.969 195.28 197.438 195.28C197.652 195.28 197.838 195.259 197.998 195.216C198.169 195.173 198.313 195.125 198.43 195.072V195.936C198.302 195.989 198.137 196.032 197.934 196.064C197.732 196.107 197.529 196.128 197.326 196.128ZM200.109 196V189.856C200.109 189.547 200.098 189.237 200.077 188.928C200.066 188.608 200.04 188.293 199.997 187.984H200.957L201.085 189.824L200.893 189.84C201 189.392 201.192 189.024 201.469 188.736C201.746 188.437 202.066 188.213 202.429 188.064C202.792 187.915 203.165 187.84 203.549 187.84C203.688 187.84 203.816 187.851 203.933 187.872C204.061 187.883 204.178 187.904 204.285 187.936L204.253 188.816C204.125 188.773 203.997 188.747 203.869 188.736C203.741 188.725 203.602 188.72 203.453 188.72C202.973 188.72 202.552 188.837 202.189 189.072C201.837 189.307 201.565 189.605 201.373 189.968C201.181 190.331 201.085 190.699 201.085 191.072V196H200.109ZM208.519 196.128C207.58 196.128 206.866 195.877 206.375 195.376C205.895 194.864 205.655 194.08 205.655 193.024V187.984H206.631V192.96C206.631 193.771 206.796 194.363 207.127 194.736C207.458 195.109 207.964 195.296 208.647 195.296C209.404 195.296 210.012 195.051 210.471 194.56C210.94 194.059 211.175 193.397 211.175 192.576V187.984H212.151V196H211.191V194.112H211.399C211.175 194.763 210.807 195.264 210.295 195.616C209.794 195.957 209.202 196.128 208.519 196.128ZM217.404 196.128C216.786 196.128 216.204 196.037 215.66 195.856C215.127 195.675 214.684 195.424 214.332 195.104L214.716 194.384C215.111 194.704 215.538 194.944 215.996 195.104C216.455 195.253 216.935 195.328 217.436 195.328C218.119 195.328 218.636 195.2 218.988 194.944C219.34 194.688 219.516 194.341 219.516 193.904C219.516 193.563 219.404 193.285 219.18 193.072C218.956 192.859 218.583 192.699 218.06 192.592L216.62 192.288C215.938 192.128 215.426 191.872 215.084 191.52C214.754 191.168 214.588 190.725 214.588 190.192C214.588 189.733 214.706 189.328 214.94 188.976C215.186 188.624 215.532 188.347 215.98 188.144C216.428 187.941 216.956 187.84 217.564 187.84C218.14 187.84 218.668 187.936 219.148 188.128C219.639 188.309 220.039 188.571 220.348 188.912L219.932 189.616C219.612 189.296 219.25 189.056 218.844 188.896C218.45 188.736 218.028 188.656 217.58 188.656C216.919 188.656 216.418 188.795 216.076 189.072C215.735 189.339 215.564 189.696 215.564 190.144C215.564 190.485 215.671 190.768 215.884 190.992C216.098 191.205 216.434 191.365 216.892 191.472L218.332 191.792C219.058 191.952 219.596 192.197 219.948 192.528C220.3 192.859 220.476 193.296 220.476 193.84C220.476 194.309 220.348 194.72 220.092 195.072C219.836 195.413 219.479 195.675 219.02 195.856C218.562 196.037 218.023 196.128 217.404 196.128ZM225.233 196.128C224.518 196.128 223.969 195.915 223.585 195.488C223.211 195.061 223.025 194.405 223.025 193.52V188.768H221.425V187.984H223.025V185.744L224.001 185.424V187.984H226.369V188.768H224.001V193.376C224.001 194.048 224.107 194.533 224.321 194.832C224.534 195.131 224.875 195.28 225.345 195.28C225.558 195.28 225.745 195.259 225.905 195.216C226.075 195.173 226.219 195.125 226.337 195.072V195.936C226.209 195.989 226.043 196.032 225.841 196.064C225.638 196.107 225.435 196.128 225.233 196.128ZM231.393 196.128C230.177 196.128 229.212 195.765 228.497 195.04C227.793 194.315 227.441 193.307 227.441 192.016C227.441 191.163 227.596 190.427 227.905 189.808C228.225 189.189 228.668 188.709 229.233 188.368C229.798 188.016 230.454 187.84 231.201 187.84C231.916 187.84 232.518 187.995 233.009 188.304C233.5 188.603 233.878 189.035 234.145 189.6C234.412 190.155 234.545 190.816 234.545 191.584V192.032H228.145V191.328H233.937L233.665 191.536C233.665 190.629 233.457 189.92 233.041 189.408C232.625 188.885 232.006 188.624 231.185 188.624C230.31 188.624 229.628 188.928 229.137 189.536C228.646 190.133 228.401 190.928 228.401 191.92V192.032C228.401 193.099 228.662 193.909 229.185 194.464C229.718 195.019 230.46 195.296 231.409 195.296C231.9 195.296 232.358 195.221 232.785 195.072C233.212 194.923 233.622 194.667 234.017 194.304L234.417 195.024C234.076 195.376 233.633 195.648 233.089 195.84C232.545 196.032 231.98 196.128 231.393 196.128ZM239.665 196.128C238.95 196.128 238.326 195.963 237.793 195.632C237.259 195.301 236.849 194.827 236.561 194.208C236.273 193.589 236.129 192.848 236.129 191.984C236.129 191.12 236.273 190.384 236.561 189.776C236.849 189.157 237.259 188.683 237.793 188.352C238.326 188.011 238.95 187.84 239.665 187.84C240.401 187.84 241.035 188.032 241.569 188.416C242.113 188.789 242.475 189.307 242.657 189.968H242.465V184.224H243.441V196H242.481V193.984H242.657C242.475 194.656 242.113 195.184 241.569 195.568C241.035 195.941 240.401 196.128 239.665 196.128ZM239.793 195.296C240.603 195.296 241.254 195.013 241.745 194.448C242.246 193.883 242.497 193.061 242.497 191.984C242.497 190.907 242.246 190.085 241.745 189.52C241.254 188.955 240.603 188.672 239.793 188.672C238.982 188.672 238.331 188.955 237.841 189.52C237.361 190.085 237.121 190.907 237.121 191.984C237.121 193.061 237.361 193.883 237.841 194.448C238.331 195.013 238.982 195.296 239.793 195.296ZM5.352 224.128C4.63733 224.128 4.01333 223.963 3.48 223.632C2.94667 223.301 2.536 222.827 2.248 222.208C1.96 221.589 1.816 220.848 1.816 219.984C1.816 219.12 1.96 218.384 2.248 217.776C2.536 217.157 2.94667 216.683 3.48 216.352C4.01333 216.011 4.63733 215.84 5.352 215.84C6.088 215.84 6.72267 216.032 7.256 216.416C7.8 216.789 8.16267 217.307 8.344 217.968H8.152V212.224H9.128V224H8.168V221.984H8.344C8.16267 222.656 7.8 223.184 7.256 223.568C6.72267 223.941 6.088 224.128 5.352 224.128ZM5.48 223.296C6.29067 223.296 6.94133 223.013 7.432 222.448C7.93333 221.883 8.184 221.061 8.184 219.984C8.184 218.907 7.93333 218.085 7.432 217.52C6.94133 216.955 6.29067 216.672 5.48 216.672C4.66933 216.672 4.01867 216.955 3.528 217.52C3.048 218.085 2.808 218.907 2.808 219.984C2.808 221.061 3.048 221.883 3.528 222.448C4.01867 223.013 4.66933 223.296 5.48 223.296ZM14.9491 224.128C14.1918 224.128 13.5358 223.963 12.9811 223.632C12.4371 223.301 12.0158 222.827 11.7171 222.208C11.4185 221.589 11.2691 220.848 11.2691 219.984C11.2691 219.131 11.4185 218.395 11.7171 217.776C12.0158 217.157 12.4371 216.683 12.9811 216.352C13.5358 216.011 14.1918 215.84 14.9491 215.84C15.6958 215.84 16.3411 216.011 16.8851 216.352C17.4398 216.683 17.8665 217.157 18.1651 217.776C18.4745 218.395 18.6291 219.131 18.6291 219.984C18.6291 220.848 18.4745 221.589 18.1651 222.208C17.8665 222.827 17.4398 223.301 16.8851 223.632C16.3411 223.963 15.6958 224.128 14.9491 224.128ZM14.9491 223.296C15.7598 223.296 16.4105 223.013 16.9011 222.448C17.3918 221.883 17.6371 221.061 17.6371 219.984C17.6371 218.907 17.3918 218.085 16.9011 217.52C16.4105 216.955 15.7598 216.672 14.9491 216.672C14.1278 216.672 13.4718 216.955 12.9811 217.52C12.5011 218.085 12.2611 218.907 12.2611 219.984C12.2611 221.061 12.5011 221.883 12.9811 222.448C13.4718 223.013 14.1278 223.296 14.9491 223.296ZM23.9975 224.128C23.2402 224.128 22.5788 223.963 22.0135 223.632C21.4482 223.291 21.0108 222.805 20.7015 222.176C20.4028 221.547 20.2535 220.8 20.2535 219.936C20.2535 219.072 20.4082 218.336 20.7175 217.728C21.0268 217.109 21.4588 216.64 22.0135 216.32C22.5788 216 23.2402 215.84 23.9975 215.84C24.5095 215.84 25.0002 215.936 25.4695 216.128C25.9495 216.32 26.3442 216.587 26.6535 216.928L26.2535 217.648C25.9228 217.317 25.5655 217.077 25.1815 216.928C24.7975 216.768 24.4135 216.688 24.0295 216.688C23.1548 216.688 22.4722 216.965 21.9815 217.52C21.4908 218.075 21.2455 218.885 21.2455 219.952C21.2455 221.019 21.4908 221.845 21.9815 222.432C22.4722 223.008 23.1548 223.296 24.0295 223.296C24.3922 223.296 24.7655 223.221 25.1495 223.072C25.5442 222.923 25.9122 222.677 26.2535 222.336L26.6535 223.056C26.3335 223.397 25.9282 223.664 25.4375 223.856C24.9575 224.037 24.4775 224.128 23.9975 224.128ZM31.2169 224.128C30.5022 224.128 29.9529 223.915 29.5689 223.488C29.1955 223.061 29.0089 222.405 29.0089 221.52V216.768H27.4089V215.984H29.0089V213.744L29.9849 213.424V215.984H32.3529V216.768H29.9849V221.376C29.9849 222.048 30.0915 222.533 30.3049 222.832C30.5182 223.131 30.8595 223.28 31.3289 223.28C31.5422 223.28 31.7289 223.259 31.8889 223.216C32.0595 223.173 32.2035 223.125 32.3209 223.072V223.936C32.1929 223.989 32.0275 224.032 31.8249 224.064C31.6222 224.107 31.4195 224.128 31.2169 224.128ZM37.1054 224.128C36.348 224.128 35.692 223.963 35.1374 223.632C34.5934 223.301 34.172 222.827 33.8734 222.208C33.5747 221.589 33.4254 220.848 33.4254 219.984C33.4254 219.131 33.5747 218.395 33.8734 217.776C34.172 217.157 34.5934 216.683 35.1374 216.352C35.692 216.011 36.348 215.84 37.1054 215.84C37.852 215.84 38.4974 216.011 39.0414 216.352C39.596 216.683 40.0227 217.157 40.3214 217.776C40.6307 218.395 40.7854 219.131 40.7854 219.984C40.7854 220.848 40.6307 221.589 40.3214 222.208C40.0227 222.827 39.596 223.301 39.0414 223.632C38.4974 223.963 37.852 224.128 37.1054 224.128ZM37.1054 223.296C37.916 223.296 38.5667 223.013 39.0574 222.448C39.548 221.883 39.7934 221.061 39.7934 219.984C39.7934 218.907 39.548 218.085 39.0574 217.52C38.5667 216.955 37.916 216.672 37.1054 216.672C36.284 216.672 35.628 216.955 35.1374 217.52C34.6574 218.085 34.4174 218.907 34.4174 219.984C34.4174 221.061 34.6574 221.883 35.1374 222.448C35.628 223.013 36.284 223.296 37.1054 223.296ZM42.9058 224V217.856C42.9058 217.547 42.8951 217.237 42.8738 216.928C42.8631 216.608 42.8364 216.293 42.7938 215.984H43.7538L43.8818 217.824L43.6898 217.84C43.7964 217.392 43.9884 217.024 44.2658 216.736C44.5431 216.437 44.8631 216.213 45.2258 216.064C45.5884 215.915 45.9618 215.84 46.3458 215.84C46.4844 215.84 46.6124 215.851 46.7298 215.872C46.8578 215.883 46.9751 215.904 47.0818 215.936L47.0498 216.816C46.9218 216.773 46.7938 216.747 46.6658 216.736C46.5378 216.725 46.3991 216.72 46.2498 216.72C45.7698 216.72 45.3484 216.837 44.9858 217.072C44.6338 217.307 44.3618 217.605 44.1698 217.968C43.9778 218.331 43.8818 218.699 43.8818 219.072V224H42.9058ZM51.0138 224.128C50.3951 224.128 49.8138 224.037 49.2698 223.856C48.7364 223.675 48.2938 223.424 47.9418 223.104L48.3258 222.384C48.7204 222.704 49.1471 222.944 49.6058 223.104C50.0644 223.253 50.5444 223.328 51.0458 223.328C51.7284 223.328 52.2458 223.2 52.5978 222.944C52.9498 222.688 53.1258 222.341 53.1258 221.904C53.1258 221.563 53.0138 221.285 52.7898 221.072C52.5658 220.859 52.1924 220.699 51.6698 220.592L50.2298 220.288C49.5471 220.128 49.0351 219.872 48.6938 219.52C48.3631 219.168 48.1978 218.725 48.1978 218.192C48.1978 217.733 48.3151 217.328 48.5498 216.976C48.7951 216.624 49.1418 216.347 49.5898 216.144C50.0378 215.941 50.5658 215.84 51.1738 215.84C51.7498 215.84 52.2778 215.936 52.7578 216.128C53.2484 216.309 53.6484 216.571 53.9578 216.912L53.5418 217.616C53.2218 217.296 52.8591 217.056 52.4538 216.896C52.0591 216.736 51.6378 216.656 51.1898 216.656C50.5284 216.656 50.0271 216.795 49.6858 217.072C49.3444 217.339 49.1738 217.696 49.1738 218.144C49.1738 218.485 49.2804 218.768 49.4938 218.992C49.7071 219.205 50.0431 219.365 50.5018 219.472L51.9418 219.792C52.6671 219.952 53.2058 220.197 53.5578 220.528C53.9098 220.859 54.0858 221.296 54.0858 221.84C54.0858 222.309 53.9578 222.72 53.7018 223.072C53.4458 223.413 53.0884 223.675 52.6298 223.856C52.1711 224.037 51.6324 224.128 51.0138 224.128ZM63.4461 224.128C62.7208 224.128 62.0915 223.963 61.5581 223.632C61.0248 223.301 60.6141 222.827 60.3261 222.208C60.0381 221.589 59.8941 220.848 59.8941 219.984C59.8941 219.12 60.0381 218.384 60.3261 217.776C60.6248 217.157 61.0408 216.683 61.5741 216.352C62.1075 216.011 62.7315 215.84 63.4461 215.84C64.1821 215.84 64.8168 216.032 65.3501 216.416C65.8941 216.8 66.2515 217.323 66.4221 217.984H66.2301L66.3901 215.984H67.3341C67.3021 216.293 67.2701 216.597 67.2381 216.896C67.2168 217.195 67.2061 217.488 67.2061 217.776V224H66.2301V222H66.4061C66.2355 222.661 65.8781 223.184 65.3341 223.568C64.8008 223.941 64.1715 224.128 63.4461 224.128ZM63.5741 223.296C64.3955 223.296 65.0461 223.013 65.5261 222.448C66.0061 221.883 66.2461 221.061 66.2461 219.984C66.2461 218.907 66.0061 218.085 65.5261 217.52C65.0461 216.955 64.3955 216.672 63.5741 216.672C62.7528 216.672 62.0968 216.955 61.6061 217.52C61.1261 218.085 60.8861 218.907 60.8861 219.984C60.8861 221.061 61.1261 221.883 61.6061 222.448C62.0968 223.013 62.7528 223.296 63.5741 223.296ZM69.8593 224V217.776C69.8593 217.488 69.8486 217.195 69.8273 216.896C69.8059 216.597 69.7739 216.293 69.7313 215.984H70.6913L70.8353 217.824H70.6432C70.8779 217.184 71.2566 216.693 71.7793 216.352C72.3019 216.011 72.9099 215.84 73.6033 215.84C74.5526 215.84 75.2673 216.091 75.7473 216.592C76.2379 217.093 76.4833 217.877 76.4833 218.944V224H75.5073V219.024C75.5073 218.203 75.3419 217.611 75.0113 217.248C74.6806 216.875 74.1686 216.688 73.4753 216.688C72.6646 216.688 72.0193 216.933 71.5393 217.424C71.0699 217.915 70.8353 218.576 70.8353 219.408V224H69.8593ZM82.1333 224.128C81.4186 224.128 80.7946 223.963 80.2613 223.632C79.7279 223.301 79.3173 222.827 79.0293 222.208C78.7413 221.589 78.5973 220.848 78.5973 219.984C78.5973 219.12 78.7413 218.384 79.0293 217.776C79.3173 217.157 79.7279 216.683 80.2613 216.352C80.7946 216.011 81.4186 215.84 82.1333 215.84C82.8693 215.84 83.5039 216.032 84.0373 216.416C84.5813 216.789 84.9439 217.307 85.1253 217.968H84.9333V212.224H85.9093V224H84.9493V221.984H85.1253C84.9439 222.656 84.5813 223.184 84.0373 223.568C83.5039 223.941 82.8693 224.128 82.1333 224.128ZM82.2613 223.296C83.0719 223.296 83.7226 223.013 84.2133 222.448C84.7146 221.883 84.9653 221.061 84.9653 219.984C84.9653 218.907 84.7146 218.085 84.2133 217.52C83.7226 216.955 83.0719 216.672 82.2613 216.672C81.4506 216.672 80.7999 216.955 80.3093 217.52C79.8293 218.085 79.5893 218.907 79.5893 219.984C79.5893 221.061 79.8293 221.883 80.3093 222.448C80.7999 223.013 81.4506 223.296 82.2613 223.296ZM96.0965 227.568C95.4245 227.568 94.7952 227.477 94.2085 227.296C93.6325 227.115 93.1152 226.843 92.6565 226.48L93.0085 225.728C93.3498 225.973 93.6752 226.165 93.9845 226.304C94.3045 226.453 94.6352 226.56 94.9765 226.624C95.3178 226.699 95.6858 226.736 96.0805 226.736C96.8912 226.736 97.5045 226.517 97.9205 226.08C98.3365 225.653 98.5445 225.035 98.5445 224.224V221.68H98.7205C98.5498 222.352 98.1925 222.88 97.6485 223.264C97.1045 223.637 96.4645 223.824 95.7285 223.824C94.9925 223.824 94.3525 223.664 93.8085 223.344C93.2752 223.013 92.8592 222.549 92.5605 221.952C92.2725 221.344 92.1285 220.635 92.1285 219.824C92.1285 219.013 92.2725 218.309 92.5605 217.712C92.8592 217.115 93.2752 216.656 93.8085 216.336C94.3525 216.005 94.9925 215.84 95.7285 215.84C96.4645 215.84 97.1045 216.032 97.6485 216.416C98.1925 216.789 98.5498 217.317 98.7205 218L98.5445 217.824L98.6885 215.984H99.6485C99.6058 216.293 99.5738 216.597 99.5525 216.896C99.5312 217.195 99.5205 217.488 99.5205 217.776V224.08C99.5205 225.232 99.2272 226.101 98.6405 226.688C98.0645 227.275 97.2165 227.568 96.0965 227.568ZM95.8405 222.992C96.6725 222.992 97.3285 222.715 97.8085 222.16C98.2992 221.605 98.5445 220.827 98.5445 219.824C98.5445 218.832 98.2992 218.059 97.8085 217.504C97.3285 216.949 96.6725 216.672 95.8405 216.672C95.0085 216.672 94.3472 216.949 93.8565 217.504C93.3658 218.059 93.1205 218.832 93.1205 219.824C93.1205 220.827 93.3658 221.605 93.8565 222.16C94.3472 222.715 95.0085 222.992 95.8405 222.992ZM105.596 224.128C104.38 224.128 103.415 223.765 102.7 223.04C101.996 222.315 101.644 221.307 101.644 220.016C101.644 219.163 101.799 218.427 102.108 217.808C102.428 217.189 102.871 216.709 103.436 216.368C104.001 216.016 104.657 215.84 105.404 215.84C106.119 215.84 106.721 215.995 107.212 216.304C107.703 216.603 108.081 217.035 108.348 217.6C108.615 218.155 108.748 218.816 108.748 219.584V220.032H102.348V219.328H108.14L107.868 219.536C107.868 218.629 107.66 217.92 107.244 217.408C106.828 216.885 106.209 216.624 105.388 216.624C104.513 216.624 103.831 216.928 103.34 217.536C102.849 218.133 102.604 218.928 102.604 219.92V220.032C102.604 221.099 102.865 221.909 103.388 222.464C103.921 223.019 104.663 223.296 105.612 223.296C106.103 223.296 106.561 223.221 106.988 223.072C107.415 222.923 107.825 222.667 108.22 222.304L108.62 223.024C108.279 223.376 107.836 223.648 107.292 223.84C106.748 224.032 106.183 224.128 105.596 224.128ZM113.436 224.128C112.721 224.128 112.172 223.915 111.788 223.488C111.414 223.061 111.228 222.405 111.228 221.52V216.768H109.628V215.984H111.228V213.744L112.204 213.424V215.984H114.572V216.768H112.204V221.376C112.204 222.048 112.31 222.533 112.524 222.832C112.737 223.131 113.078 223.28 113.548 223.28C113.761 223.28 113.948 223.259 114.108 223.216C114.278 223.173 114.422 223.125 114.54 223.072V223.936C114.412 223.989 114.246 224.032 114.044 224.064C113.841 224.107 113.638 224.128 113.436 224.128ZM122.904 224.128C122.19 224.128 121.64 223.915 121.256 223.488C120.883 223.061 120.696 222.405 120.696 221.52V216.768H119.096V215.984H120.696V213.744L121.672 213.424V215.984H124.04V216.768H121.672V221.376C121.672 222.048 121.779 222.533 121.992 222.832C122.206 223.131 122.547 223.28 123.016 223.28C123.23 223.28 123.416 223.259 123.576 223.216C123.747 223.173 123.891 223.125 124.008 223.072V223.936C123.88 223.989 123.715 224.032 123.512 224.064C123.31 224.107 123.107 224.128 122.904 224.128ZM125.703 224V212.224H126.679V217.84H126.487C126.711 217.189 127.09 216.693 127.623 216.352C128.156 216.011 128.775 215.84 129.479 215.84C130.45 215.84 131.164 216.096 131.623 216.608C132.092 217.12 132.327 217.888 132.327 218.912V224H131.351V218.992C131.351 218.181 131.191 217.595 130.871 217.232C130.551 216.869 130.039 216.688 129.335 216.688C128.535 216.688 127.89 216.933 127.399 217.424C126.919 217.915 126.679 218.565 126.679 219.376V224H125.703ZM138.393 224.128C137.177 224.128 136.212 223.765 135.497 223.04C134.793 222.315 134.441 221.307 134.441 220.016C134.441 219.163 134.596 218.427 134.905 217.808C135.225 217.189 135.668 216.709 136.233 216.368C136.798 216.016 137.454 215.84 138.201 215.84C138.916 215.84 139.518 215.995 140.009 216.304C140.5 216.603 140.878 217.035 141.145 217.6C141.412 218.155 141.545 218.816 141.545 219.584V220.032H135.145V219.328H140.937L140.665 219.536C140.665 218.629 140.457 217.92 140.041 217.408C139.625 216.885 139.006 216.624 138.185 216.624C137.31 216.624 136.628 216.928 136.137 217.536C135.646 218.133 135.401 218.928 135.401 219.92V220.032C135.401 221.099 135.662 221.909 136.185 222.464C136.718 223.019 137.46 223.296 138.409 223.296C138.9 223.296 139.358 223.221 139.785 223.072C140.212 222.923 140.622 222.667 141.017 222.304L141.417 223.024C141.076 223.376 140.633 223.648 140.089 223.84C139.545 224.032 138.98 224.128 138.393 224.128ZM151.495 224.128C150.748 224.128 150.108 223.941 149.575 223.568C149.052 223.184 148.7 222.656 148.519 221.984H148.695V224H147.719V212.224H148.695V217.968H148.519C148.7 217.307 149.052 216.789 149.575 216.416C150.108 216.032 150.748 215.84 151.495 215.84C152.22 215.84 152.844 216.011 153.367 216.352C153.9 216.683 154.311 217.157 154.599 217.776C154.897 218.384 155.047 219.125 155.047 220C155.047 220.853 154.897 221.589 154.599 222.208C154.3 222.827 153.884 223.301 153.351 223.632C152.828 223.963 152.209 224.128 151.495 224.128ZM151.351 223.296C152.172 223.296 152.828 223.019 153.319 222.464C153.809 221.899 154.055 221.077 154.055 220C154.055 218.923 153.809 218.101 153.319 217.536C152.828 216.96 152.172 216.672 151.351 216.672C150.54 216.672 149.889 216.955 149.399 217.52C148.919 218.085 148.679 218.907 148.679 219.984C148.679 221.061 148.919 221.883 149.399 222.448C149.889 223.013 150.54 223.296 151.351 223.296ZM160.612 224.128C159.396 224.128 158.43 223.765 157.716 223.04C157.012 222.315 156.66 221.307 156.66 220.016C156.66 219.163 156.814 218.427 157.124 217.808C157.444 217.189 157.886 216.709 158.452 216.368C159.017 216.016 159.673 215.84 160.42 215.84C161.134 215.84 161.737 215.995 162.228 216.304C162.718 216.603 163.097 217.035 163.364 217.6C163.63 218.155 163.764 218.816 163.764 219.584V220.032H157.364V219.328H163.156L162.884 219.536C162.884 218.629 162.676 217.92 162.26 217.408C161.844 216.885 161.225 216.624 160.404 216.624C159.529 216.624 158.846 216.928 158.356 217.536C157.865 218.133 157.62 218.928 157.62 219.92V220.032C157.62 221.099 157.881 221.909 158.404 222.464C158.937 223.019 159.678 223.296 160.628 223.296C161.118 223.296 161.577 223.221 162.004 223.072C162.43 222.923 162.841 222.667 163.236 222.304L163.636 223.024C163.294 223.376 162.852 223.648 162.308 223.84C161.764 224.032 161.198 224.128 160.612 224.128ZM168.451 224.128C167.833 224.128 167.251 224.037 166.707 223.856C166.174 223.675 165.731 223.424 165.379 223.104L165.763 222.384C166.158 222.704 166.585 222.944 167.043 223.104C167.502 223.253 167.982 223.328 168.483 223.328C169.166 223.328 169.683 223.2 170.035 222.944C170.387 222.688 170.563 222.341 170.563 221.904C170.563 221.563 170.451 221.285 170.227 221.072C170.003 220.859 169.63 220.699 169.107 220.592L167.667 220.288C166.985 220.128 166.473 219.872 166.131 219.52C165.801 219.168 165.635 218.725 165.635 218.192C165.635 217.733 165.753 217.328 165.987 216.976C166.233 216.624 166.579 216.347 167.027 216.144C167.475 215.941 168.003 215.84 168.611 215.84C169.187 215.84 169.715 215.936 170.195 216.128C170.686 216.309 171.086 216.571 171.395 216.912L170.979 217.616C170.659 217.296 170.297 217.056 169.891 216.896C169.497 216.736 169.075 216.656 168.627 216.656C167.966 216.656 167.465 216.795 167.123 217.072C166.782 217.339 166.611 217.696 166.611 218.144C166.611 218.485 166.718 218.768 166.931 218.992C167.145 219.205 167.481 219.365 167.939 219.472L169.379 219.792C170.105 219.952 170.643 220.197 170.995 220.528C171.347 220.859 171.523 221.296 171.523 221.84C171.523 222.309 171.395 222.72 171.139 223.072C170.883 223.413 170.526 223.675 170.067 223.856C169.609 224.037 169.07 224.128 168.451 224.128ZM176.279 224.128C175.565 224.128 175.015 223.915 174.631 223.488C174.258 223.061 174.071 222.405 174.071 221.52V216.768H172.471V215.984H174.071V213.744L175.047 213.424V215.984H177.415V216.768H175.047V221.376C175.047 222.048 175.154 222.533 175.367 222.832C175.581 223.131 175.922 223.28 176.391 223.28C176.605 223.28 176.791 223.259 176.951 223.216C177.122 223.173 177.266 223.125 177.383 223.072V223.936C177.255 223.989 177.09 224.032 176.887 224.064C176.685 224.107 176.482 224.128 176.279 224.128ZM2.312 252V245.856C2.312 245.547 2.30133 245.237 2.28 244.928C2.26933 244.608 2.24267 244.293 2.2 243.984H3.16L3.288 245.824L3.096 245.84C3.20267 245.392 3.39467 245.024 3.672 244.736C3.94933 244.437 4.26933 244.213 4.632 244.064C4.99467 243.915 5.368 243.84 5.752 243.84C5.89067 243.84 6.01867 243.851 6.136 243.872C6.264 243.883 6.38133 243.904 6.488 243.936L6.456 244.816C6.328 244.773 6.2 244.747 6.072 244.736C5.944 244.725 5.80533 244.72 5.656 244.72C5.176 244.72 4.75467 244.837 4.392 245.072C4.04 245.307 3.768 245.605 3.576 245.968C3.384 246.331 3.288 246.699 3.288 247.072V252H2.312ZM11.2524 252.128C10.0364 252.128 9.07104 251.765 8.35638 251.04C7.65238 250.315 7.30038 249.307 7.30038 248.016C7.30038 247.163 7.45504 246.427 7.76438 245.808C8.08438 245.189 8.52704 244.709 9.09238 244.368C9.65771 244.016 10.3137 243.84 11.0604 243.84C11.775 243.84 12.3777 243.995 12.8684 244.304C13.359 244.603 13.7377 245.035 14.0044 245.6C14.271 246.155 14.4044 246.816 14.4044 247.584V248.032H8.00438V247.328H13.7964L13.5244 247.536C13.5244 246.629 13.3164 245.92 12.9004 245.408C12.4844 244.885 11.8657 244.624 11.0444 244.624C10.1697 244.624 9.48704 244.928 8.99638 245.536C8.50571 246.133 8.26038 246.928 8.26038 247.92V248.032C8.26038 249.099 8.52171 249.909 9.04438 250.464C9.57771 251.019 10.319 251.296 11.2684 251.296C11.759 251.296 12.2177 251.221 12.6444 251.072C13.071 250.923 13.4817 250.667 13.8764 250.304L14.2764 251.024C13.935 251.376 13.4924 251.648 12.9484 251.84C12.4044 252.032 11.839 252.128 11.2524 252.128ZM19.7319 252.128C18.9745 252.128 18.3132 251.963 17.7479 251.632C17.1825 251.291 16.7452 250.805 16.4359 250.176C16.1372 249.547 15.9879 248.8 15.9879 247.936C15.9879 247.072 16.1425 246.336 16.4519 245.728C16.7612 245.109 17.1932 244.64 17.7479 244.32C18.3132 244 18.9745 243.84 19.7319 243.84C20.2439 243.84 20.7345 243.936 21.2039 244.128C21.6839 244.32 22.0785 244.587 22.3879 244.928L21.9879 245.648C21.6572 245.317 21.2999 245.077 20.9159 244.928C20.5319 244.768 20.1479 244.688 19.7639 244.688C18.8892 244.688 18.2065 244.965 17.7159 245.52C17.2252 246.075 16.9799 246.885 16.9799 247.952C16.9799 249.019 17.2252 249.845 17.7159 250.432C18.2065 251.008 18.8892 251.296 19.7639 251.296C20.1265 251.296 20.4999 251.221 20.8839 251.072C21.2785 250.923 21.6465 250.677 21.9879 250.336L22.3879 251.056C22.0679 251.397 21.6625 251.664 21.1719 251.856C20.6919 252.037 20.2119 252.128 19.7319 252.128ZM27.371 252.128C26.6137 252.128 25.9577 251.963 25.403 251.632C24.859 251.301 24.4377 250.827 24.139 250.208C23.8403 249.589 23.691 248.848 23.691 247.984C23.691 247.131 23.8403 246.395 24.139 245.776C24.4377 245.157 24.859 244.683 25.403 244.352C25.9577 244.011 26.6137 243.84 27.371 243.84C28.1177 243.84 28.763 244.011 29.307 244.352C29.8617 244.683 30.2883 245.157 30.587 245.776C30.8963 246.395 31.051 247.131 31.051 247.984C31.051 248.848 30.8963 249.589 30.587 250.208C30.2883 250.827 29.8617 251.301 29.307 251.632C28.763 251.963 28.1177 252.128 27.371 252.128ZM27.371 251.296C28.1817 251.296 28.8323 251.013 29.323 250.448C29.8137 249.883 30.059 249.061 30.059 247.984C30.059 246.907 29.8137 246.085 29.323 245.52C28.8323 244.955 28.1817 244.672 27.371 244.672C26.5497 244.672 25.8937 244.955 25.403 245.52C24.923 246.085 24.683 246.907 24.683 247.984C24.683 249.061 24.923 249.883 25.403 250.448C25.8937 251.013 26.5497 251.296 27.371 251.296ZM33.1874 252V245.776C33.1874 245.488 33.1767 245.195 33.1554 244.896C33.134 244.597 33.102 244.293 33.0594 243.984H34.0194L34.1634 245.824H33.9714C34.174 245.195 34.51 244.709 34.9794 244.368C35.4487 244.016 36.0194 243.84 36.6914 243.84C37.374 243.84 37.9287 244.005 38.3554 244.336C38.782 244.667 39.0647 245.179 39.2034 245.872H38.9634C39.1554 245.253 39.5074 244.763 40.0194 244.4C40.5314 244.027 41.134 243.84 41.8274 243.84C42.702 243.84 43.3634 244.091 43.8114 244.592C44.2594 245.093 44.4834 245.877 44.4834 246.944V252H43.5074V247.008C43.5074 246.197 43.3634 245.611 43.0754 245.248C42.7874 244.875 42.318 244.688 41.6674 244.688C40.942 244.688 40.366 244.933 39.9394 245.424C39.5234 245.915 39.3154 246.576 39.3154 247.408V252H38.3394V247.008C38.3394 246.197 38.1954 245.611 37.9074 245.248C37.6194 244.875 37.1554 244.688 36.5154 244.688C35.79 244.688 35.214 244.933 34.7874 245.424C34.3714 245.915 34.1634 246.576 34.1634 247.408V252H33.1874ZM50.5336 252.128C49.3176 252.128 48.3523 251.765 47.6376 251.04C46.9336 250.315 46.5816 249.307 46.5816 248.016C46.5816 247.163 46.7363 246.427 47.0456 245.808C47.3656 245.189 47.8083 244.709 48.3736 244.368C48.939 244.016 49.595 243.84 50.3416 243.84C51.0563 243.84 51.659 243.995 52.1496 244.304C52.6403 244.603 53.019 245.035 53.2856 245.6C53.5523 246.155 53.6856 246.816 53.6856 247.584V248.032H47.2856V247.328H53.0776L52.8056 247.536C52.8056 246.629 52.5976 245.92 52.1816 245.408C51.7656 244.885 51.147 244.624 50.3256 244.624C49.451 244.624 48.7683 244.928 48.2776 245.536C47.787 246.133 47.5416 246.928 47.5416 247.92V248.032C47.5416 249.099 47.803 249.909 48.3256 250.464C48.859 251.019 49.6003 251.296 50.5496 251.296C51.0403 251.296 51.499 251.221 51.9256 251.072C52.3523 250.923 52.763 250.667 53.1576 250.304L53.5576 251.024C53.2163 251.376 52.7736 251.648 52.2296 251.84C51.6856 252.032 51.1203 252.128 50.5336 252.128ZM55.7811 252V245.776C55.7811 245.488 55.7705 245.195 55.7491 244.896C55.7278 244.597 55.6958 244.293 55.6531 243.984H56.6131L56.7571 245.824H56.5651C56.7998 245.184 57.1785 244.693 57.7011 244.352C58.2238 244.011 58.8318 243.84 59.5251 243.84C60.4745 243.84 61.1891 244.091 61.6691 244.592C62.1598 245.093 62.4051 245.877 62.4051 246.944V252H61.4291V247.024C61.4291 246.203 61.2638 245.611 60.9331 245.248C60.6025 244.875 60.0905 244.688 59.3971 244.688C58.5865 244.688 57.9411 244.933 57.4611 245.424C56.9918 245.915 56.7571 246.576 56.7571 247.408V252H55.7811ZM68.0551 252.128C67.3405 252.128 66.7165 251.963 66.1831 251.632C65.6498 251.301 65.2391 250.827 64.9511 250.208C64.6631 249.589 64.5191 248.848 64.5191 247.984C64.5191 247.12 64.6631 246.384 64.9511 245.776C65.2391 245.157 65.6498 244.683 66.1831 244.352C66.7165 244.011 67.3405 243.84 68.0551 243.84C68.7911 243.84 69.4258 244.032 69.9591 244.416C70.5031 244.789 70.8658 245.307 71.0471 245.968H70.8551V240.224H71.8311V252H70.8711V249.984H71.0471C70.8658 250.656 70.5031 251.184 69.9591 251.568C69.4258 251.941 68.7911 252.128 68.0551 252.128ZM68.1831 251.296C68.9938 251.296 69.6445 251.013 70.1351 250.448C70.6365 249.883 70.8871 249.061 70.8871 247.984C70.8871 246.907 70.6365 246.085 70.1351 245.52C69.6445 244.955 68.9938 244.672 68.1831 244.672C67.3725 244.672 66.7218 244.955 66.2311 245.52C65.7511 246.085 65.5111 246.907 65.5111 247.984C65.5111 249.061 65.7511 249.883 66.2311 250.448C66.7218 251.013 67.3725 251.296 68.1831 251.296ZM77.5243 252.128C76.7989 252.128 76.1696 251.963 75.6363 251.632C75.1029 251.301 74.6923 250.827 74.4043 250.208C74.1163 249.589 73.9723 248.848 73.9723 247.984C73.9723 247.12 74.1163 246.384 74.4043 245.776C74.7029 245.157 75.1189 244.683 75.6523 244.352C76.1856 244.011 76.8096 243.84 77.5243 243.84C78.2603 243.84 78.8949 244.032 79.4283 244.416C79.9723 244.8 80.3296 245.323 80.5003 245.984H80.3083L80.4683 243.984H81.4123C81.3803 244.293 81.3483 244.597 81.3163 244.896C81.2949 245.195 81.2843 245.488 81.2843 245.776V252H80.3083V250H80.4843C80.3136 250.661 79.9563 251.184 79.4123 251.568C78.8789 251.941 78.2496 252.128 77.5243 252.128ZM77.6523 251.296C78.4736 251.296 79.1243 251.013 79.6043 250.448C80.0843 249.883 80.3243 249.061 80.3243 247.984C80.3243 246.907 80.0843 246.085 79.6043 245.52C79.1243 244.955 78.4736 244.672 77.6523 244.672C76.8309 244.672 76.1749 244.955 75.6843 245.52C75.2043 246.085 74.9643 246.907 74.9643 247.984C74.9643 249.061 75.2043 249.883 75.6843 250.448C76.1749 251.013 76.8309 251.296 77.6523 251.296ZM86.5294 252.128C85.8147 252.128 85.2654 251.915 84.8814 251.488C84.508 251.061 84.3214 250.405 84.3214 249.52V244.768H82.7214V243.984H84.3214V241.744L85.2974 241.424V243.984H87.6654V244.768H85.2974V249.376C85.2974 250.048 85.404 250.533 85.6174 250.832C85.8307 251.131 86.172 251.28 86.6414 251.28C86.8547 251.28 87.0414 251.259 87.2014 251.216C87.372 251.173 87.516 251.125 87.6334 251.072V251.936C87.5054 251.989 87.34 252.032 87.1374 252.064C86.9347 252.107 86.732 252.128 86.5294 252.128ZM89.328 252V243.984H90.304V252H89.328ZM89.168 242.016V240.8H90.48V242.016H89.168ZM96.1366 252.128C95.3793 252.128 94.7233 251.963 94.1686 251.632C93.6246 251.301 93.2033 250.827 92.9046 250.208C92.606 249.589 92.4566 248.848 92.4566 247.984C92.4566 247.131 92.606 246.395 92.9046 245.776C93.2033 245.157 93.6246 244.683 94.1686 244.352C94.7233 244.011 95.3793 243.84 96.1366 243.84C96.8833 243.84 97.5286 244.011 98.0726 244.352C98.6273 244.683 99.054 245.157 99.3526 245.776C99.662 246.395 99.8166 247.131 99.8166 247.984C99.8166 248.848 99.662 249.589 99.3526 250.208C99.054 250.827 98.6273 251.301 98.0726 251.632C97.5286 251.963 96.8833 252.128 96.1366 252.128ZM96.1366 251.296C96.9473 251.296 97.598 251.013 98.0886 250.448C98.5793 249.883 98.8246 249.061 98.8246 247.984C98.8246 246.907 98.5793 246.085 98.0886 245.52C97.598 244.955 96.9473 244.672 96.1366 244.672C95.3153 244.672 94.6593 244.955 94.1686 245.52C93.6886 246.085 93.4486 246.907 93.4486 247.984C93.4486 249.061 93.6886 249.883 94.1686 250.448C94.6593 251.013 95.3153 251.296 96.1366 251.296ZM101.953 252V245.776C101.953 245.488 101.942 245.195 101.921 244.896C101.9 244.597 101.868 244.293 101.825 243.984H102.785L102.929 245.824H102.737C102.972 245.184 103.35 244.693 103.873 244.352C104.396 244.011 105.004 243.84 105.697 243.84C106.646 243.84 107.361 244.091 107.841 244.592C108.332 245.093 108.577 245.877 108.577 246.944V252H107.601V247.024C107.601 246.203 107.436 245.611 107.105 245.248C106.774 244.875 106.262 244.688 105.569 244.688C104.758 244.688 104.113 244.933 103.633 245.424C103.164 245.915 102.929 246.576 102.929 247.408V252H101.953ZM113.795 252.128C113.176 252.128 112.595 252.037 112.051 251.856C111.518 251.675 111.075 251.424 110.723 251.104L111.107 250.384C111.502 250.704 111.928 250.944 112.387 251.104C112.846 251.253 113.326 251.328 113.827 251.328C114.51 251.328 115.027 251.2 115.379 250.944C115.731 250.688 115.907 250.341 115.907 249.904C115.907 249.563 115.795 249.285 115.571 249.072C115.347 248.859 114.974 248.699 114.451 248.592L113.011 248.288C112.328 248.128 111.816 247.872 111.475 247.52C111.144 247.168 110.979 246.725 110.979 246.192C110.979 245.733 111.096 245.328 111.331 244.976C111.576 244.624 111.923 244.347 112.371 244.144C112.819 243.941 113.347 243.84 113.955 243.84C114.531 243.84 115.059 243.936 115.539 244.128C116.03 244.309 116.43 244.571 116.739 244.912L116.323 245.616C116.003 245.296 115.64 245.056 115.235 244.896C114.84 244.736 114.419 244.656 113.971 244.656C113.31 244.656 112.808 244.795 112.467 245.072C112.126 245.339 111.955 245.696 111.955 246.144C111.955 246.485 112.062 246.768 112.275 246.992C112.488 247.205 112.824 247.365 113.283 247.472L114.723 247.792C115.448 247.952 115.987 248.197 116.339 248.528C116.691 248.859 116.867 249.296 116.867 249.84C116.867 250.309 116.739 250.72 116.483 251.072C116.227 251.413 115.87 251.675 115.411 251.856C114.952 252.037 114.414 252.128 113.795 252.128Z" fill="#7D7987"/>
<defs>
<linearGradient id="paint0_linear_33_15" x1="4.07698" y1="45.0301" x2="67.3445" y2="50.4539" gradientUnits="userSpaceOnUse">
<stop stop-color="#6CBCFC"/>
<stop offset="1" stop-color="#458DFC"/>
</linearGradient>
<linearGradient id="paint1_linear_33_15" x1="18.6708" y1="19.2924" x2="48.4654" y2="34.6685" gradientUnits="userSpaceOnUse">
<stop stop-color="#B0F4FF"/>
<stop offset="0.0856277" stop-color="#A3F0FE"/>
<stop offset="0.2972" stop-color="#8AE7FD"/>
<stop offset="0.5161" stop-color="#77E1FD"/>
<stop offset="0.7451" stop-color="#6DDDFC"/>
<stop offset="1" stop-color="#69DCFC"/>
</linearGradient>
<linearGradient id="paint2_linear_33_15" x1="54.8137" y1="49.257" x2="12.4813" y2="49.257" gradientUnits="userSpaceOnUse">
<stop stop-color="#6CBCFC"/>
<stop offset="1" stop-color="#458DFC"/>
</linearGradient>
<linearGradient id="paint3_linear_33_15" x1="47.6026" y1="59.5877" x2="12.4813" y2="59.5877" gradientUnits="userSpaceOnUse">
<stop stop-color="#6CBCFC"/>
<stop offset="1" stop-color="#458DFC"/>
</linearGradient>
<linearGradient id="paint4_linear_33_15" x1="41.2336" y1="65.7799" x2="12.4813" y2="65.7799" gradientUnits="userSpaceOnUse">
<stop stop-color="#6CBCFC"/>
<stop offset="1" stop-color="#458DFC"/>
</linearGradient>
<linearGradient id="paint5_linear_33_15" x1="44.6574" y1="71.5124" x2="12.4813" y2="71.5124" gradientUnits="userSpaceOnUse">
<stop stop-color="#6CBCFC"/>
<stop offset="1" stop-color="#458DFC"/>
</linearGradient>
<clipPath id="clip0_33_15">
<rect width="67.2917" height="95" fill="white"/>
</clipPath>
</defs>
</svg>
